<svg width="118" height="52" viewBox="0 0 118 52" fill="none" xmlns="http://www.w3.org/2000/svg">
<path d="M33.313 20.0962C33.1473 20.7382 32.816 21.8047 32.816 22.4777C32.816 24.0516 34.4623 24.559 35.798 24.559C38.3762 24.559 40.064 22.7366 41.2651 20.6761C42.3109 18.9366 43.3463 16.2341 43.3463 14.2046C43.3463 11.6161 41.7 10.4771 39.2874 10.4771C38.1795 10.4771 37.1337 10.7463 36.0983 11.0155L33.313 20.0962ZM30.8383 28.2762C30.7037 28.711 30.362 29.7465 30.362 30.1503C30.362 31.3824 31.532 31.5171 32.5053 31.5895C32.8056 31.6206 33.4786 31.5895 33.4786 32.0244C33.4786 32.3868 33.0334 32.4593 32.7745 32.4593L29.4922 32.2936L27.1522 32.4179L25.3712 32.5939C25.2366 32.625 25.0088 32.656 24.8328 32.656C24.5739 32.656 24.429 32.5525 24.429 32.2936C24.429 31.7552 25.4748 31.7241 25.8372 31.6517C26.3756 31.5895 27.1107 31.4239 27.4835 30.989C27.9184 30.4506 28.4879 28.6075 28.6949 27.8723L33.6547 11.6575C33.2508 11.7507 31.1179 12.755 30.8486 12.755C30.6726 12.755 30.5173 12.6204 30.5173 12.4548C30.5173 12.0613 31.1489 11.8542 31.4181 11.7196L33.9964 10.6117L34.9075 7.66072C35.2078 6.69776 35.1767 6.62528 36.2122 6.62528C36.6263 6.62528 37.289 6.45961 37.289 7.0291C37.289 7.2569 37.1855 7.46398 37.1234 7.66072L36.4193 10.0111C36.9991 9.87654 37.5272 9.80406 38.0967 9.73158C38.6661 9.66945 39.2667 9.63839 39.8362 9.63839C42.9528 9.63839 45.8313 10.9741 45.8313 14.5049C45.8313 17.0417 44.4646 19.9306 42.8182 21.8151C41.0373 23.8963 38.3555 25.3977 35.5391 25.3977C34.2656 25.3977 33.0541 24.7971 32.1429 23.9273L30.8383 28.2762Z" fill="#1F1F1F" fill-opacity="0.8"/>
<path d="M51.2777 14.0183C51.4537 13.4281 51.6815 12.6826 51.6815 12.082C51.6815 11.7817 51.609 11.3779 51.2466 11.3779C50.4804 11.3779 49.1758 13.045 48.7616 13.6248L48.4613 14.0493C48.3578 14.1839 48.1611 14.5567 47.954 14.5567C47.8194 14.5567 47.7262 14.4531 47.7262 14.3185C47.7262 13.7801 49.1033 12.1752 49.4346 11.8128C50.1387 11.0052 51.6815 9.62803 52.7894 9.62803C53.7938 9.62803 54.032 10.8602 54.032 11.6057C54.032 12.4133 53.7938 13.1589 53.5557 13.894L52.1164 18.6156C53.3486 16.3998 56.6412 9.63839 59.5197 9.63839C60.5241 9.63839 61.1971 10.27 61.1971 11.3158C61.1971 12.2166 60.6587 13.2935 59.6543 13.2935C57.9769 13.2935 58.9192 11.6575 58.008 11.6575C57.1072 11.6575 55.0467 14.6809 54.6843 15.2711C53.4418 17.2281 51.2674 21.3388 50.6357 23.4925C50.263 24.7246 50.3665 24.9938 49.0205 24.9938C48.7305 24.9938 48.0886 25.056 48.0886 24.559C48.0886 24.3933 48.2853 23.7513 48.3164 23.6167L51.2777 14.0183Z" fill="#1F1F1F" fill-opacity="0.8"/>
<path d="M69.5738 10.3011C65.08 10.3011 62.7606 16.203 62.7606 19.9616C62.7606 22.281 63.4958 24.6625 66.219 24.6625C70.5367 24.6625 72.9596 18.2842 72.9596 14.6706C72.9596 12.3823 72.1831 10.3011 69.5738 10.3011ZM72.5558 22.3328C70.9509 23.9791 68.3313 25.3873 65.9808 25.3873C62.4293 25.3873 60.3481 22.105 60.3481 18.8434C60.3481 14.215 64.7072 9.62803 69.3667 9.62803C72.8768 9.62803 75.2583 12.8482 75.2583 16.172C75.2686 18.4188 74.1607 20.7693 72.5558 22.3328Z" fill="#1F1F1F" fill-opacity="0.8"/>
<path d="M82.8066 17.6526C84.2769 15.2608 87.6317 9.63839 90.7483 9.63839C92.2601 9.63839 92.726 11.0466 92.726 12.3202C92.726 13.2935 92.4879 14.2668 92.1979 15.1779L91.1522 18.5949C92.2911 16.5551 93.4301 14.4739 94.9315 12.6929C96.0083 11.4297 98.1517 9.64874 99.9223 9.64874C101.237 9.64874 102.035 10.3839 102.035 11.6575C102.035 12.755 101.631 13.9044 101.299 14.9398L98.7833 21.8461C98.6176 22.281 98.5141 22.5502 98.5141 23.0058C98.5141 23.3475 98.6797 23.6478 99.0421 23.6478C100.119 23.6478 101.962 21.0281 102.49 20.1894C102.563 20.0859 102.666 19.9202 102.79 19.9202C102.966 19.9202 103.07 20.0238 103.07 20.148C103.07 20.7589 101.755 22.3224 101.382 22.7262C100.554 23.6995 98.7729 25.3769 97.3647 25.3769C96.3914 25.3769 96.0601 24.7764 96.0601 23.8756C96.0601 22.8608 96.6607 21.2249 96.992 20.2412L98.7419 15.4265C99.0421 14.6602 99.6116 13.045 99.6116 12.2373C99.6116 11.4297 99.2492 11.1294 98.5037 11.1294C96.8367 11.1294 94.6105 14.039 93.7822 15.2815C92.2808 17.487 90.3342 21.1731 89.5576 23.7203C89.2573 24.766 89.3609 24.9628 88.1908 24.9628C87.9527 24.9628 87.0519 25.087 87.0519 24.59C87.0519 24.4554 87.29 23.7513 87.3211 23.6271L90.1064 14.5049C90.3031 13.8733 90.5723 13.0346 90.5723 12.3616C90.5723 11.7196 90.3031 11.1501 89.6094 11.1501C88.2633 11.1501 86.1821 13.7387 85.5091 14.5981C83.7385 16.9382 81.5848 20.8314 80.7461 23.6478C80.3423 24.9317 80.5183 24.9628 79.3482 24.9628C79.0065 24.9628 78.2817 25.087 78.2817 24.559C78.2817 24.269 78.406 23.8652 78.4785 23.596L81.4605 13.9044C81.6262 13.3038 81.8333 12.7033 81.8333 12.0613C81.8333 11.8335 81.7297 11.4607 81.4295 11.4607C80.6529 11.4607 78.9444 13.4384 78.5406 14.039C78.406 14.2461 78.1471 14.712 77.8779 14.712C77.7123 14.712 77.6398 14.5774 77.6398 14.4531C77.6398 14.0907 79.048 12.4341 79.3275 12.1648C80.2284 11.264 81.9679 9.61768 83.345 9.61768C84.1837 9.61768 84.2562 10.5599 84.2562 11.1915C84.2562 12.0924 84.018 13.0346 83.7592 13.9044L82.3924 18.3671L82.8066 17.6526Z" fill="#1F1F1F" fill-opacity="0.8"/>
<path d="M64.3241 31.9416C63.2784 30.8751 61.7356 30.2021 60.2342 30.2021C58.8571 30.2021 57.2832 30.6991 56.4445 31.9416C55.875 32.5835 55.875 33.4844 55.875 34.2506V39.4485C55.875 40.6599 55.9786 41.861 56.9519 42.7411C57.687 43.3417 58.8674 43.7144 59.8718 43.7144C63.7236 43.7144 66.1051 40.3182 66.1051 36.8392C66.1051 35.0686 65.5667 33.2566 64.3241 31.9416ZM53.566 34.1885C53.566 33.7225 53.6074 32.4179 53.2347 32.0451C53.0379 31.807 52.5306 31.7759 52.2717 31.7759H51.8368C51.6401 31.7759 51.433 31.7138 51.433 31.5067C51.433 31.1132 51.899 31.0511 52.2096 30.9476C53.0069 30.7094 54.4461 29.8397 54.9845 29.208C55.1502 29.032 55.3159 28.7732 55.5851 28.7732C55.9268 28.7732 55.8854 29.0631 55.8854 29.3012V31.1443C57.6353 29.6947 59.5094 28.8042 61.5492 28.7628C63.4337 28.7317 65.3389 29.7982 66.6124 31.1029C67.9481 32.5214 68.6626 34.4577 68.6626 36.3939C68.6626 41.0223 64.9765 44.3357 60.286 44.3046C59.0124 44.3046 58.1116 44.0044 56.9312 43.6109C56.7344 43.5695 56.3617 43.4349 56.1649 43.4349C55.7611 43.4349 55.8957 44.2321 55.8957 44.4392V48.0218C55.8957 49.4611 55.5955 50.6 57.4075 50.7657C57.7388 50.7968 58.3393 50.7657 58.3393 51.2006C58.3393 51.4698 58.1737 51.5734 57.9355 51.5734C56.8587 51.5734 55.7922 51.4387 54.7878 51.4387C53.711 51.4387 52.6341 51.5734 51.5987 51.5734C51.3605 51.5734 51.1327 51.5009 51.1327 51.242C51.1327 50.7347 51.6919 50.7968 52.0646 50.7657C53.8663 50.6 53.566 49.4611 53.566 48.0218V34.1885Z" fill="#1F1F1F" fill-opacity="0.8"/>
<path d="M78.261 34.0021C79.2965 34.0021 81.1706 33.9607 82.1439 33.7225C82.8894 33.5569 83.3864 33.1945 83.3864 32.3868C83.3864 31.6827 82.9826 30.9061 82.5167 30.4091C81.7712 29.6326 80.6736 29.3634 79.5967 29.3634C77.8883 29.3634 76.242 30.2021 75.2376 31.5999C74.9373 31.9726 74.3989 33.0081 74.3989 33.5465C74.3989 34.0849 75.1651 33.9917 75.5275 33.9917H78.261V34.0021ZM75.5171 34.7994C74.4817 34.7994 74.14 34.7372 74.14 35.8452C74.14 39.6038 76.5836 42.855 80.6425 42.855C83.9352 42.855 85.1674 40.6703 85.6126 40.6703C85.7783 40.6703 85.8818 40.8049 85.8818 40.9395C85.8818 41.3433 84.805 42.2441 84.5668 42.4512C82.993 43.7869 81.3466 44.3357 79.2654 44.3357C74.8752 44.3357 71.6239 40.8152 71.6239 36.6321C71.6239 34.3541 72.2659 32.5732 74.0468 31.0304C75.7242 29.5601 77.8055 28.7939 80.073 28.7939C81.8851 28.7939 83.7281 29.4255 84.9085 30.8647C85.5712 31.7034 86.0785 33.1427 86.0785 34.2506C86.0785 34.5198 86.0061 34.8097 85.6747 34.8097H75.5171V34.7994Z" fill="#1F1F1F" fill-opacity="0.8"/>
<path d="M91.1004 34.1885C91.1004 33.7225 91.1315 32.4179 90.7587 32.0451C90.562 31.807 90.0546 31.7759 89.7957 31.7759H89.3609C89.1641 31.7759 88.957 31.7138 88.957 31.5067C88.957 31.1132 89.423 31.0511 89.7233 30.9476C90.5309 30.7094 91.9701 29.8397 92.5086 29.208C92.6742 29.032 92.8399 28.7732 93.1091 28.7732C93.4508 28.7732 93.4094 29.0631 93.4094 29.3012V30.9476C93.4094 31.0925 93.3369 31.6517 93.5751 31.6517C93.9064 31.6517 95.2214 28.9699 97.5304 28.9699C98.5348 28.9699 99.4356 29.5704 99.4356 30.5852C99.4356 31.4239 98.8351 31.9209 98.0274 31.9209C96.8884 31.9209 96.8263 30.6473 95.8841 30.6473C95.1489 30.6473 94.5691 31.3514 94.1756 31.8484C93.368 32.9874 93.399 33.8571 93.399 35.2032V40.4942C93.399 41.9438 93.0988 43.0828 94.9108 43.2485C95.2421 43.2796 95.8427 43.2485 95.8427 43.6834C95.8427 43.9526 95.677 44.0561 95.4388 44.0561C94.3723 44.0561 93.3059 43.9215 92.2911 43.9215C91.2246 43.9215 90.1478 44.0561 89.102 44.0561C88.8639 44.0561 88.6361 43.9733 88.6361 43.7144C88.6361 43.2071 89.2055 43.2796 89.5783 43.2485C91.38 43.0725 91.09 41.9438 91.09 40.4942V34.1885H91.1004Z" fill="#1F1F1F" fill-opacity="0.8"/>
<path d="M107.792 26.5573C107.584 26.6195 107.046 26.9301 106.808 26.9301C106.673 26.9301 106.58 26.7955 106.58 26.6609C106.58 26.402 107.119 26.1225 107.243 26.0293L111.705 22.7159C112.171 22.3431 112.844 21.8151 113.476 21.8151C113.911 21.8151 114.315 22.1775 114.315 22.6434C114.315 23.4925 113.279 23.8238 112.637 24.1551L107.792 26.5573ZM115.495 39.8937C115.495 41.1983 115.236 42.2338 116.841 42.0992L117.276 42.0681C117.483 42.0681 117.711 42.0992 117.711 42.3373C117.711 42.6376 117.214 42.7101 117.007 42.7722C115.837 43.1035 114.625 43.4866 113.652 44.2114C113.59 44.2425 113.383 44.4082 113.29 44.4082C113.124 44.4082 113.124 44.315 113.124 44.139V43.3417C113.124 43.176 113.29 41.9646 112.855 41.9646C112.347 41.9646 110.774 44.315 107.729 44.315C106.083 44.315 104.747 43.642 103.774 42.358C102.697 40.9912 102.77 39.2724 102.77 37.6364V32.5525C102.77 31.1443 103.101 29.8707 101.258 29.8707C100.958 29.8707 100.357 29.8707 100.357 29.4151C100.357 29.1459 100.523 29.2184 100.792 29.2184H104.551C105.255 29.2184 105.089 29.9121 105.089 30.4195V37.6468C105.089 38.7547 105.089 40.4321 105.7 41.3951C106.363 42.503 107.812 42.9379 109.044 42.9379C110.484 42.9379 111.685 42.4719 112.627 41.4261C113.331 40.6599 113.196 39.8937 113.196 38.9411V32.5525C113.196 31.1443 113.538 29.8707 111.726 29.8707C111.416 29.8707 110.784 29.8707 110.784 29.4358C110.784 29.1459 110.991 29.208 111.25 29.208H115.143C115.671 29.208 115.506 29.674 115.506 30.0364V39.8937H115.495Z" fill="#1F1F1F" fill-opacity="0.8"/>
<path d="M17.6676 0.868286C17.6676 0.868286 11.631 3.16694 12.5008 12.3409C13.3706 21.5251 18.1232 29.8397 24.6257 36.7253C30.5484 42.9896 41.4618 50.2169 45.8728 51.4491C45.9659 51.4802 29.0056 51.4802 28.9642 51.4491C27.556 50.0616 18.7341 41.2087 14.7373 33.5672C10.3678 25.2423 8.07951 17.9322 9.31167 11.6161C10.5542 5.32064 13.8572 2.01761 17.6676 0.868286Z" fill="#1F1F1F" fill-opacity="0.8"/>
<path d="M17.2845 44.3046C15.9591 42.9482 14.6649 41.2915 13.6398 39.8833C13.6398 39.8833 13.6294 39.873 13.6294 39.8626C13.1221 39.1585 12.6872 38.5269 12.3455 38.0092C8.98034 32.832 0.903971 17.839 10.2125 5.02037C10.2125 5.02037 1.40098 14.0597 0.272359 23.2336C-0.856262 32.4075 1.88763 40.1526 1.88763 40.1526H1.91869C2.61243 42.5133 3.22334 44.2943 3.22334 44.2943H17.2845V44.3046Z" fill="#1F1F1F" fill-opacity="0.8"/>
</svg>
