<svg width="85" height="52" viewBox="0 0 85 52" fill="none" xmlns="http://www.w3.org/2000/svg">
<path d="M74.043 15.2382C74.5364 14.7309 75.4745 13.8624 76.3639 13.1188C76.9267 12.6533 79.595 13.2231 79.0044 13.9805C78.2956 14.8977 76.0373 16.1207 75.2313 16.5723C74.4322 17.0101 72.9729 16.343 74.043 15.2382Z" fill="#494949" fill-opacity="0.8"/>
<path d="M84.077 23.0763C81.6936 22.6455 80.7207 21.4573 80.547 20.4358C80.137 18.0663 81.0056 16.9406 80.2621 16.9476C79.5186 16.9615 78.2678 17.4409 78.1845 18.1428C77.7953 21.4712 76.357 23.4238 74.2654 23.4168C71.9862 23.4099 71.5971 20.4011 72.0488 18.4693C72.3684 17.1005 71.1454 17.4131 70.1309 17.844C69.7626 18.0038 69.4847 18.2261 69.3527 18.789C69.0817 19.9425 68.7134 21.7422 67.1013 22.7428C65.5517 23.7017 63.6547 23.4377 63.5922 19.6715C63.5227 15.3841 59.2284 17.3159 57.8387 17.7606C56.4489 18.2053 55.7262 17.9968 55.761 19.3449C55.8513 22.7428 53.3081 23.799 51.3138 23.9032C48.4996 24.0561 47.1168 22.0132 47.1168 21.2141C49.6322 21.2836 51.1818 21.0473 52.2727 20.0537C53.7111 18.7403 53.2247 15.8427 49.7782 15.5648C46.3316 15.2938 44.4624 17.7884 44.2956 19.2546C43.1074 19.2268 42.8364 19.2268 41.5787 19.1851C41.2799 14.0986 39.8554 8.61609 37.1801 5.26681C34.4841 2.04262 28.3692 0.909978 22.0528 0.868286C18.231 0.868286 13.7005 1.28521 10.4763 2.18159C7.25208 3.09187 4.68106 4.37043 2.86744 7.13602C-0.245576 11.882 -0.148294 17.5382 0.282525 24.7649C0.838422 33.7356 2.96473 42.6786 5.59134 50.885C5.86234 51.7189 6.77262 51.156 7.44664 50.7044C8.12761 50.2527 8.59318 50.0026 8.34997 49.3911C5.34813 41.6641 2.95083 30.442 2.58255 24.751C2.23511 19.3101 2.26985 11.34 5.02849 8.01155C8.87113 3.38372 18.1615 2.90426 21.8374 2.90426C27.9245 2.86256 32.5732 3.98825 34.9496 6.36471C37.5415 8.94963 38.9729 14.3279 39.2787 19.1086C38.7436 19.0878 37.8264 19.0808 37.2844 19.06C37.1663 17.6911 36.7493 15.5856 36.0267 14.1195C34.7967 11.6735 33.0457 10.0336 30.3287 9.03996C27.7577 8.09494 24.2625 7.70581 20.3643 7.70581C15.8129 7.71276 10.914 9.06081 8.23184 12.5004C6.51551 14.7448 5.85539 17.3923 5.84149 21.0404C5.84844 24.48 6.314 28.4685 7.6551 31.5329C8.9823 34.5903 11.0669 37.6964 13.77 38.9333C15.3612 39.6559 17.6751 39.9825 19.4262 39.8991C25.0964 39.6212 36.0406 36.7722 38.9868 32.4293C42.1346 27.7737 41.6412 21.1654 41.6343 21.0751C42.8781 21.1099 43.573 21.089 44.3304 21.089C44.4554 22.7775 46.0953 25.9045 50.6745 25.9045C55.2468 25.9045 56.713 22.0688 56.9423 21.0126C57.1438 20.1023 58.2347 19.5394 59.6731 19.3727C61.4798 19.1573 59.9928 21.0195 62.3901 23.8476C64.572 26.4187 67.2055 24.5286 67.6989 24.1325C68.7064 23.3265 69.707 21.492 69.8808 20.6582C69.9225 23.3056 71.1871 24.9247 73.911 25.2026C76.6766 25.4806 78.5805 23.3612 79.1712 22.3259C80.7972 25.0011 82.854 25.6404 83.4099 25.425C83.9727 25.1957 85.1123 23.264 84.077 23.0763ZM24.4501 30.6087C22.9423 30.6852 20.4338 30.7686 18.7313 30.0042C16.1047 28.8229 15.0485 25.5918 15.0555 22.6247C15.0624 19.2754 17.0775 15.0853 22.9353 15.0784C28.3622 15.0784 29.7937 18.2192 30.0369 18.8098C29.2239 18.7195 25.277 18.3373 23.2063 18.511C21.6359 18.6431 18.9954 19.2476 18.9954 22.4579C18.9954 25.6682 21.9347 28.8855 28.0635 27.5374C29.5505 27.2108 32.6982 26.1338 32.594 20.7277C33.7266 20.7833 34.3312 20.7833 35.575 20.8319C36.3394 27.8709 30.8846 30.2752 24.4501 30.6087ZM30.4121 20.686C30.7734 22.8609 29.4601 25.8628 25.2909 25.3555C20.7812 24.7996 21.8374 20.818 24.6099 20.6512C27.0072 20.4984 29.62 20.6512 30.4121 20.686ZM35.2345 32.8115C32.6287 34.632 27.7021 36.2789 22.8658 37.1127C19.8292 37.6408 16.3479 37.5435 14.1313 36.0913C9.05179 32.7628 8.44031 24.0353 8.44031 20.825C8.44725 17.4131 9.19077 10.5965 19.5513 9.99193C30.5928 9.3457 34.352 13.3551 35.3457 19.1573L32.2118 18.9766C31.8713 17.9551 31.1487 16.8225 30.4955 16.0304C29.0224 14.3349 26.5347 13.2092 23.2272 13.1953C13.5823 13.1536 12.5609 19.8869 12.7763 23.1875C12.9987 26.6132 14.0757 30.9701 17.6334 32.3945C19.0857 32.9782 21.5456 33.145 23.1924 33.1033C28.5012 32.9226 33.2333 31.1577 35.8877 28.0169C36.9786 26.7314 37.5762 23.9102 37.5762 21.9506C37.5762 21.492 37.6249 21.3253 37.5762 20.8458C38.0487 20.8597 39.3134 20.9083 39.3134 20.9083C39.3065 25.0081 38.8687 30.2613 35.2345 32.8115ZM49.2778 16.9684C51.4458 16.4681 52.3422 19.0391 49.2917 19.2615C48.0201 19.3588 47.0195 19.2962 47.0195 19.2962C47.3392 18.1219 48.1591 17.2255 49.2778 16.9684Z" fill="#494949" fill-opacity="0.8"/>
</svg>
